<svg version="1.0" xmlns="http://www.w3.org/2000/svg"
 width="1024.000000pt" height="1024.000000pt" viewBox="0 0 1024.000000 1024.000000"
 preserveAspectRatio="xMidYMid meet">

<g transform="translate(0.000000,1024.000000) scale(0.100000,-0.100000)"
fill="#CC3B3B" stroke="none">
<path d="M5621 7864 c-77 -64 2 -184 90 -138 55 28 67 97 24 139 -32 33 -75
32 -114 -1z"/>
<path d="M5320 7562 c-127 -33 -209 -101 -266 -219 -28 -58 -40 -73 -63 -78
-29 -6 -64 -39 -94 -87 -10 -16 -25 -28 -35 -28 -37 0 -80 -39 -111 -101 -17
-34 -31 -72 -31 -83 0 -16 -11 -25 -47 -38 -98 -35 -170 -123 -180 -221 -7
-67 7 -112 52 -169 l35 -43 0 -157 0 -158 -49 0 c-27 0 -57 -3 -66 -6 -13 -5
-11 5 11 47 27 53 28 58 27 205 -1 178 -16 227 -90 295 l-44 41 15 39 c20 48
20 89 2 132 -25 61 -104 91 -168 64 l-34 -14 -41 81 c-23 44 -44 91 -48 103
-13 46 -88 42 -100 -5 -7 -29 -80 -157 -94 -167 -5 -3 -21 -1 -36 5 -46 17
-106 1 -147 -40 -33 -33 -38 -44 -38 -85 0 -26 7 -62 16 -81 l16 -34 -40 -45
c-57 -65 -76 -109 -80 -191 l-4 -72 -33 22 c-40 27 -143 51 -185 43 -29 -6
-30 -5 -30 31 0 49 -27 161 -46 189 -10 16 -24 23 -48 23 -42 0 -50 -24 -36
-100 6 -29 10 -70 10 -91 l0 -37 -29 14 c-50 25 -125 29 -177 9 -84 -32 -124
-80 -139 -167 -4 -28 -13 -42 -33 -52 -63 -32 -134 -151 -166 -274 -22 -91
-22 -91 -34 -58 -17 47 -130 152 -197 182 -80 37 -155 56 -160 41 -1 -7 -11
-43 -22 -82 l-19 -70 -41 -3 c-40 -3 -93 -40 -93 -65 0 -15 -43 -77 -54 -77
-5 0 -6 32 -3 73 6 70 5 73 -24 101 -16 17 -32 41 -35 55 -13 59 -15 61 -47
61 -55 0 -102 -18 -134 -52 -42 -43 -54 -79 -54 -154 0 -88 30 -152 101 -217
47 -42 60 -62 73 -107 12 -41 28 -67 65 -103 67 -66 130 -89 265 -95 l107 -5
0 -28 c0 -46 37 -133 72 -168 31 -32 35 -33 88 -27 30 3 110 9 178 12 111 7
124 5 144 -12 26 -24 98 -173 218 -454 50 -118 107 -250 127 -293 l37 -79 24
54 c31 69 128 306 262 640 59 147 115 279 123 292 9 13 33 30 54 36 21 7 57
23 81 37 l42 24 0 -744 0 -743 30 -40 29 -41 -182 -20 c-100 -11 -184 -19
-186 -17 -2 2 15 24 38 49 l41 45 0 315 c0 180 -4 315 -9 315 -5 0 -14 -12
-19 -27 -10 -28 -260 -605 -302 -697 -14 -31 -25 -45 -32 -38 -13 13 -143 288
-245 517 -46 105 -88 194 -92 198 -14 14 -22 -80 -36 -433 -6 -146 5 -271 27
-297 8 -10 6 -13 -8 -13 -35 0 -339 -72 -368 -87 -23 -12 -49 -14 -115 -9
-219 17 -361 112 -361 244 0 143 100 311 265 442 61 48 195 135 199 128 1 -2
-1 -77 -5 -168 -4 -91 -8 -220 -8 -286 -1 -117 -2 -122 -23 -128 -42 -11 -59
-6 -136 39 -101 59 -139 60 -161 2 -14 -37 7 -79 51 -100 81 -37 206 -85 242
-91 21 -4 46 -12 56 -18 21 -13 77 17 110 59 20 25 20 39 20 653 0 589 -1 628
-18 643 -46 42 -150 61 -192 35 -17 -11 -25 -8 -61 27 -22 22 -56 64 -75 93
-66 101 -110 124 -152 79 -43 -46 -15 -107 55 -122 24 -5 37 -16 53 -48 12
-23 31 -52 42 -63 l19 -22 -34 -26 c-35 -27 -53 -32 -59 -18 -1 4 -63 64 -136
132 -73 68 -145 143 -158 166 -32 55 -77 73 -114 46 -33 -25 -37 -76 -10 -119
17 -29 25 -33 62 -33 41 0 47 -4 160 -117 65 -65 118 -121 118 -124 0 -3 -34
-35 -76 -69 -203 -168 -334 -434 -334 -675 0 -210 74 -378 235 -537 141 -139
368 -197 611 -154 45 8 120 24 168 35 116 28 136 26 164 -10 l24 -29 -22 -44
c-90 -187 -6 -397 170 -421 43 -6 59 -3 103 19 31 15 60 38 70 56 23 39 25
132 3 165 -22 33 -21 35 17 35 20 0 52 -12 80 -30 58 -36 74 -37 88 -6 18 38
-15 95 -71 126 -56 31 -156 35 -210 7 -45 -22 -81 -76 -87 -130 -4 -36 -1 -48
22 -75 23 -28 25 -33 10 -38 -20 -8 -65 23 -82 57 -7 13 -13 48 -13 77 0 98
72 197 180 246 114 52 221 70 770 127 668 69 750 73 1310 73 543 0 640 -5
1240 -60 560 -51 693 -71 799 -121 67 -32 140 -103 169 -167 24 -50 32 -153
11 -140 -7 4 -10 1 -7 -7 7 -19 -21 -71 -35 -66 -7 2 -11 12 -9 23 1 10 5 37
8 60 13 96 -61 168 -173 167 -111 -1 -193 -61 -193 -141 0 -47 23 -51 90 -14
32 18 72 32 89 32 l31 0 -20 -32 c-28 -45 -27 -129 1 -175 54 -87 193 -94 281
-15 89 80 113 212 64 348 -25 67 -25 68 -5 82 10 7 19 20 19 28 0 20 15 18
180 -17 201 -42 357 -49 463 -20 142 39 249 108 335 216 118 149 163 261 170
432 6 154 -27 291 -109 456 -26 52 -113 168 -168 225 l-42 42 45 58 c66 85
165 179 216 204 77 39 90 112 28 148 -25 13 -30 13 -55 -2 -16 -9 -40 -40 -55
-68 -26 -49 -232 -280 -250 -280 -4 0 -17 9 -27 19 -19 19 -19 22 -3 62 10 27
29 49 54 65 62 39 73 106 21 119 -37 9 -64 -14 -112 -95 -24 -39 -49 -74 -57
-77 -8 -3 -25 2 -39 11 -19 13 -25 25 -25 53 0 31 9 45 65 101 36 36 65 73 65
82 0 24 -21 40 -52 40 -23 0 -34 -10 -64 -56 l-35 -55 -35 71 c-19 39 -34 75
-34 79 0 4 24 18 52 32 70 32 190 123 259 195 55 58 196 249 257 349 35 58
105 216 98 223 -3 2 -83 8 -178 12 -95 5 -220 14 -278 21 -252 28 -469 -21
-629 -142 -28 -21 -54 -39 -56 -39 -3 0 -5 15 -5 33 0 55 -39 177 -86 272 -30
61 -76 128 -144 210 -70 83 -114 147 -143 207 -37 77 -45 87 -69 87 -18 1 -38
-10 -62 -35 -98 -101 -66 -249 91 -419 81 -89 124 -159 148 -239 18 -61 20
-90 3 -61 -6 11 -47 71 -91 133 -74 104 -110 142 -124 128 -11 -11 -15 -291
-5 -343 10 -56 8 -58 -35 -47 -18 5 -20 10 -13 23 13 25 15 214 2 298 -14 99
-37 137 -85 141 -35 3 -37 5 -31 30 4 15 15 51 26 79 22 61 17 90 -18 99 -38
10 -51 -10 -75 -114 -13 -53 -23 -98 -23 -98 -1 -1 -16 -5 -35 -9 l-34 -7 6
76 c4 58 2 79 -8 90 -11 10 -12 22 -5 46 13 44 12 417 -1 441 -5 10 -20 19
-32 19 -20 0 -25 8 -37 52 -9 38 -26 67 -60 103 -25 27 -61 74 -79 103 -44 70
-63 67 -118 -18 -23 -35 -59 -78 -78 -95 -25 -20 -42 -48 -55 -84 -11 -34 -24
-55 -35 -57 -45 -7 -45 -7 -45 -159 0 -80 -2 -145 -4 -145 -4 0 -85 47 -115
67 -2 1 -7 24 -12 50 -16 84 -87 163 -146 163 -13 0 -23 4 -23 8 0 18 -71 90
-104 106 -25 12 -38 27 -47 54 -28 84 -98 161 -191 208 -109 56 -202 66 -318
36z m78 -194 c7 -7 12 -21 11 -32 0 -20 -1 -20 -9 2 -15 36 -69 30 -120 -13
-50 -42 -59 -44 -30 -8 44 56 118 81 148 51z m229 -30 c27 -30 43 -62 42 -85
0 -16 -1 -16 -9 2 -10 25 -56 68 -95 88 l-30 16 36 1 c24 0 42 -7 56 -22z
m1013 -95 c18 -22 21 -37 17 -73 -4 -36 -12 -51 -43 -77 -20 -18 -48 -33 -61
-33 -36 0 -93 58 -100 102 -7 46 13 100 36 96 12 -2 17 -19 21 -68 l5 -65 45
0 45 0 -3 73 c-1 39 2 72 7 72 5 0 19 -12 31 -27z m-889 -133 c10 -6 19 -15
19 -21 0 -6 -8 -5 -21 2 -12 6 -36 8 -55 4 -30 -5 -34 -10 -35 -38 0 -27 -2
-29 -9 -12 -15 34 -11 51 13 63 29 14 63 15 88 2z m-539 -27 c38 -36 35 -50
-4 -21 -18 13 -46 28 -62 35 l-31 11 34 1 c25 1 43 -7 63 -26z m298 20 c-8 -3
-23 -15 -32 -27 -16 -20 -17 -20 -24 -2 -8 22 10 36 46 35 15 0 19 -3 10 -6z
m931 -64 c68 -48 79 -65 79 -120 0 -27 -2 -49 -5 -49 -4 0 -18 6 -33 14 -29
15 -81 66 -67 66 4 0 1 8 -8 18 -19 20 -35 102 -20 102 6 0 30 -14 54 -31z
m289 9 c0 -48 -22 -100 -59 -138 -52 -55 -71 -53 -71 8 0 55 15 81 73 123 48
35 57 36 57 7z m-2705 -79 c-9 -35 -21 -72 -27 -83 -10 -19 -11 -19 -24 -1
-21 29 -17 68 12 111 51 75 63 66 39 -27z m909 16 c-9 -14 -18 -25 -21 -25 -5
0 5 18 20 38 17 22 18 13 1 -13z m-1138 -90 c-9 -9 -16 -24 -17 -33 0 -11 -2
-13 -6 -4 -5 14 25 67 34 58 3 -3 -2 -12 -11 -21z m2707 -137 c13 -18 17 -38
15 -77 l-3 -53 -34 24 c-46 31 -81 88 -96 157 l-7 34 53 -30 c29 -16 62 -41
72 -55z m218 -5 c-11 -40 -78 -123 -99 -123 -11 0 -18 59 -12 100 3 22 51 71
85 85 27 12 30 12 33 -5 2 -10 -2 -36 -7 -57z m-584 15 c13 -12 23 -31 22 -42
0 -15 -2 -17 -6 -6 -18 44 -40 45 -897 45 l-558 0 -19 -24 c-11 -13 -22 -21
-25 -18 -4 3 7 20 24 37 l30 30 703 0 703 0 23 -22z m-1941 -15 c22 -9 45 -18
52 -19 28 -5 107 -71 107 -90 0 -10 4 -24 8 -31 4 -7 1 -26 -8 -43 -8 -16 -11
-30 -6 -30 5 0 7 -9 4 -20 -13 -48 -76 -3 -88 63 -10 49 -43 89 -111 129 -30
18 -54 37 -54 41 0 5 6 7 13 4 8 -3 20 -1 28 4 8 5 15 9 15 9 1 0 19 -8 40
-17z m3013 -35 c17 -29 66 -98 111 -153 129 -160 212 -355 209 -489 -1 -37 -3
-44 -8 -26 -4 14 -14 41 -23 60 -9 19 -19 51 -22 70 -19 99 -111 280 -143 280
-7 0 -20 15 -29 33 -9 17 -24 41 -34 52 -41 45 -118 225 -97 225 3 0 19 -24
36 -52z m-3214 33 c3 -5 -21 -21 -53 -36 -32 -14 -65 -35 -73 -47 -8 -11 -23
-33 -35 -47 -12 -14 -29 -43 -39 -63 -10 -22 -24 -38 -34 -38 -9 0 -21 -4 -27
-9 -5 -5 -19 -12 -31 -16 -21 -6 -23 -3 -23 28 0 18 12 58 28 88 42 83 144
145 244 148 20 1 39 -3 43 -8z m121 -87 c38 -18 58 -46 51 -72 -4 -13 -5 -12
-6 4 0 12 -7 24 -14 27 -19 7 -68 -4 -61 -14 3 -5 0 -9 -5 -9 -6 0 -11 8 -11
18 -1 15 -2 15 -16 -3 -12 -16 -16 -17 -23 -6 -6 9 -11 10 -15 2 -4 -6 -12 -8
-18 -5 -7 5 -9 1 -5 -9 4 -11 2 -14 -9 -10 -9 3 -14 -1 -14 -13 -1 -17 -3 -16
-21 5 -17 21 -18 27 -6 45 18 27 74 56 110 56 16 0 44 -7 63 -16z m21 -60 c-3
-3 -12 -4 -19 -1 -8 3 -5 6 6 6 11 1 17 -2 13 -5z m827 -30 c61 -16 103 -16
307 2 54 5 96 2 147 -10 95 -21 189 -20 313 4 61 12 116 18 138 14 76 -14 183
-81 210 -132 7 -14 11 -160 11 -446 l0 -426 -57 1 c-88 2 -104 9 -144 70 -47
70 -143 159 -203 187 -107 51 -267 66 -381 37 -138 -35 -283 -140 -343 -247
l-27 -49 -107 2 -108 2 0 422 c0 292 4 432 12 456 25 74 85 129 142 129 15 0
56 -7 90 -16z m1492 -12 c60 -44 65 -54 62 -119 l-3 -58 -48 44 c-52 48 -71
77 -82 129 -6 27 -4 32 13 32 10 0 37 -13 58 -28z m274 -2 c0 -17 -6 -45 -14
-63 -15 -35 -79 -107 -94 -107 -14 0 -20 80 -9 114 9 25 86 86 109 86 4 0 8
-14 8 -30z m-460 -157 c0 -69 -3 -123 -6 -120 -11 10 -13 247 -3 247 5 0 9
-57 9 -127z m-2305 93 c100 -31 108 -35 96 -50 -6 -7 -8 -15 -5 -19 3 -3 -12
-3 -33 0 -24 3 -53 -1 -77 -11 -21 -9 -40 -16 -42 -16 -9 0 -54 77 -54 92 0
16 23 28 45 24 6 -1 37 -10 70 -20z m-785 -51 c48 -25 36 -44 -40 -66 -29 -9
-60 -29 -87 -56 -22 -24 -44 -43 -48 -43 -16 0 5 75 31 112 45 64 90 81 144
53z m611 -42 c21 -25 61 -99 44 -81 -4 4 -14 1 -22 -7 -15 -15 -65 -10 -71 7
-8 20 -24 6 -18 -17 4 -14 2 -25 -3 -25 -11 0 -21 35 -21 74 0 30 33 76 55 76
6 0 23 -12 36 -27z m559 12 c0 -8 5 -15 11 -15 5 0 8 4 5 9 -4 5 3 7 14 4 27
-7 29 -87 3 -102 -17 -10 -17 -10 0 -11 15 0 16 -2 5 -14 -7 -8 -14 -10 -16
-5 -2 5 -14 9 -27 9 -13 0 -27 5 -30 10 -3 6 -12 10 -18 10 -7 0 -6 -4 3 -10
8 -5 11 -12 8 -15 -14 -14 -28 8 -25 38 7 63 67 145 67 92z m2533 -60 c-3 -9
-8 -14 -10 -11 -3 3 -2 9 2 15 9 16 15 13 8 -4z m-2851 -14 c6 -10 18 -17 26
-14 11 5 11 0 -2 -25 -9 -17 -16 -33 -16 -37 0 -11 28 -5 34 8 3 6 5 3 3 -8
-2 -17 -11 -20 -55 -23 -61 -4 -78 6 -88 51 -5 25 -2 34 16 49 29 23 67 23 82
-1z m2418 -10 c48 -32 69 -63 69 -101 1 -50 -14 -55 -50 -16 -33 36 -89 123
-89 139 0 15 28 6 70 -22z m280 -4 c0 -27 -44 -120 -66 -138 -23 -19 -54 -18
-55 0 -7 79 9 109 71 142 46 24 50 23 50 -4z m-2448 -125 c22 -14 35 -29 32
-37 -7 -17 -64 -38 -64 -24 0 6 -7 6 -19 -1 -26 -13 -52 -14 -31 0 11 7 2 8
-27 4 -27 -4 -43 -3 -43 4 0 5 10 8 23 5 16 -3 18 -2 8 5 -11 8 -10 12 7 21
16 9 24 8 36 -4 9 -9 17 -11 21 -5 9 14 21 12 39 -5 13 -14 15 -13 13 3 -1 14
-8 18 -31 17 -17 -2 -34 -1 -38 2 -8 4 24 45 32 40 3 -1 22 -13 42 -25z
m-1336 2 c29 -12 35 -18 23 -24 -8 -5 -26 -33 -39 -62 -12 -29 -36 -81 -52
-115 -15 -34 -28 -70 -28 -80 0 -29 16 -47 35 -39 30 11 35 -4 15 -44 -22 -44
-28 -130 -8 -130 7 0 30 17 51 38 40 37 44 33 21 -22 -5 -14 -4 -17 4 -12 7 4
12 2 12 -4 0 -7 -6 -10 -12 -7 -7 2 -12 15 -11 28 2 22 2 22 -8 6 -6 -10 -8
-21 -5 -24 3 -4 0 -13 -7 -21 -10 -13 -9 -14 2 -7 9 5 5 -5 -7 -22 -12 -17
-22 -40 -22 -51 0 -22 37 -55 52 -46 5 3 7 0 6 -8 -2 -7 4 -13 13 -12 12 1 9
-10 -14 -54 l-30 -55 -20 24 c-36 44 -74 133 -93 214 -26 111 -26 305 0 398
15 55 65 147 80 147 2 0 21 -7 42 -16z m965 -20 c30 -20 57 -41 61 -47 8 -14
0 -29 -12 -22 -5 3 -11 1 -15 -5 -10 -17 -32 -11 -66 18 -32 26 -32 16 -1 -21
17 -19 16 -22 -15 -31 -19 -6 -25 -1 -43 33 -26 53 -25 65 8 90 15 11 28 21
28 21 1 0 26 -16 55 -36z m4462 8 c34 -14 -34 -60 -171 -117 -172 -70 -224
-99 -293 -162 -31 -29 -63 -53 -71 -53 -7 0 -36 15 -63 34 l-50 34 -37 -36
c-32 -31 -38 -33 -38 -16 0 30 41 100 85 146 75 77 186 136 310 163 63 14 297
19 328 7z m219 -33 c-53 -83 -133 -167 -200 -206 l-42 -25 6 -49 7 -50 -54
-50 c-29 -27 -59 -47 -66 -45 -7 3 -15 1 -18 -4 -4 -6 -16 -10 -28 -10 -22 1
-22 1 -2 17 19 15 19 15 -8 9 -17 -4 -26 -3 -23 3 3 5 0 12 -6 15 -7 3 -2 3
11 0 16 -4 21 -3 17 5 -4 6 -17 11 -29 12 -12 0 -1 6 25 13 55 15 78 31 78 56
0 31 -26 42 -85 38 -30 -2 -55 -2 -55 2 0 3 13 13 28 22 58 34 288 201 322
233 34 32 52 39 113 42 l28 2 -19 -30z m-2147 -85 c183 -33 505 -100 575 -120
298 -83 534 -184 737 -317 163 -105 244 -194 293 -318 19 -48 20 -81 0 -50 -4
8 -15 11 -25 8 -9 -4 -14 -3 -10 3 3 5 -4 9 -17 9 -13 -1 -70 10 -128 24 -135
33 -279 60 -460 87 -80 12 -197 31 -261 41 -201 33 -589 87 -709 99 -63 6
-134 13 -158 16 l-43 5 2 242 c0 133 3 256 6 274 5 28 8 32 32 28 14 -3 89
-16 166 -31z m-4060 -39 c0 -40 -5 -66 -15 -77 -14 -14 -17 -13 -32 18 -15 32
-15 39 -1 80 11 32 20 44 32 42 13 -3 16 -16 16 -63z m-460 -2 c8 -32 22 -75
30 -97 8 -21 12 -43 9 -47 -3 -5 2 -9 11 -9 10 0 13 -5 9 -12 -4 -7 -3 -10 1
-5 5 4 35 -18 67 -50 56 -56 58 -59 58 -111 0 -50 -1 -52 -21 -41 -11 6 -30
32 -41 57 -12 27 -53 81 -98 127 -84 87 -106 132 -95 193 7 37 19 52 42 52 6
0 19 -26 28 -57z m2655 -38 c0 -30 -1 -55 -2 -55 -28 0 -326 -36 -418 -49 -69
-11 -152 -22 -185 -26 -71 -8 -91 -17 -98 -44 -7 -29 18 -59 61 -71 31 -8 44
-7 77 10 27 13 119 31 290 55 138 19 256 35 263 35 9 0 12 -32 12 -120 l0
-120 -26 -6 c-20 -5 -29 -1 -42 17 -33 49 -79 87 -117 98 -91 25 -162 3 -198
-60 -12 -21 -27 -39 -33 -39 -6 0 -60 16 -120 35 -60 20 -140 39 -179 43 -54
6 -69 11 -66 22 2 8 10 58 19 110 9 52 16 96 17 97 1 3 467 94 550 107 50 7
114 14 143 15 l52 1 0 -55z m3448 -222 c-15 -2 -42 -2 -60 0 -18 2 -6 4 27 4
33 0 48 -2 33 -4z m-5305 -269 l25 -59 -28 -8 c-16 -4 -66 -14 -111 -22 -76
-13 -85 -13 -101 2 -39 35 -8 108 90 214 l66 71 17 -69 c10 -39 29 -96 42
-129z m2868 143 c52 -21 101 -69 129 -124 l25 -48 3 -727 3 -728 -48 1 c-26 0
-69 4 -95 7 l-48 7 -140 205 c-192 279 -563 799 -572 800 -4 0 -7 -206 -8
-459 l-1 -458 41 -49 40 -49 -202 -11 c-112 -6 -204 -10 -206 -9 -1 1 17 24
40 50 l43 49 3 627 4 626 -38 54 c-26 35 -33 51 -21 46 9 -3 72 -9 140 -13 67
-3 136 -10 152 -15 23 -7 58 -48 154 -182 193 -267 302 -416 455 -621 l141
-189 3 507 c2 560 4 547 -61 586 -43 27 -80 25 -115 -5 -58 -48 -50 -130 16
-185 24 -20 31 -30 20 -30 -12 0 -15 -6 -11 -22 3 -13 3 -20 -2 -16 -4 4 -14
0 -23 -9 -12 -12 -28 -14 -71 -9 -99 12 -174 75 -188 160 -15 94 81 207 207
243 56 16 182 11 231 -10z m-1196 -109 c14 -6 25 -18 25 -27 -1 -32 -39 -100
-69 -122 l-31 -23 0 -648 0 -648 35 -39 35 -39 -97 -6 c-54 -4 -145 -12 -202
-17 -57 -5 -105 -8 -108 -6 -2 3 14 26 37 51 l40 47 0 647 0 648 -31 18 c-32
19 -68 84 -69 124 0 31 27 29 81 -7 55 -36 96 -45 166 -36 40 5 63 14 89 37
18 16 34 36 34 44 0 17 30 18 65 2z m1840 -133 c143 -13 314 -29 380 -35 135
-12 180 -23 191 -48 13 -28 32 -176 24 -190 -5 -10 -15 2 -31 35 -35 71 -60
79 -294 103 -109 11 -211 20 -227 20 l-29 0 3 -317 3 -318 70 -6 c39 -4 131
-10 206 -14 l136 -7 44 60 c35 48 56 66 99 85 80 36 101 41 94 24 -3 -8 -22
-19 -43 -25 -21 -7 -52 -27 -69 -47 -30 -33 -32 -39 -32 -113 0 -106 -8 -144
-29 -138 -19 6 -270 33 -393 42 l-88 7 0 -226 c0 -206 2 -226 18 -231 9 -3
104 -12 211 -21 143 -13 200 -14 218 -6 15 7 33 33 50 71 27 64 50 81 39 30
-3 -17 -2 -29 2 -26 8 5 10 -8 13 -66 1 -18 6 -39 12 -45 6 -9 5 -13 -4 -13
-11 0 -11 -2 1 -10 10 -6 11 -10 3 -10 -7 0 -13 -7 -13 -16 0 -18 35 -19 -385
16 -126 10 -283 22 -347 26 l-117 7 19 25 c19 24 20 44 20 683 l0 657 -25 30
c-29 35 -31 45 -7 38 9 -3 134 -17 277 -31z m-3202 10 c-3 -9 -8 -14 -10 -11
-3 3 -2 9 2 15 9 16 15 13 8 -4z m4047 -115 c20 -5 179 -30 353 -55 175 -24
324 -48 330 -51 34 -20 56 -49 51 -68 -2 -12 0 -43 5 -71 5 -27 7 -53 4 -58
-2 -4 -18 12 -34 36 -16 24 -41 49 -56 56 -24 11 -183 37 -345 56 l-58 7 0
-314 0 -315 173 -22 c94 -12 186 -21 204 -21 34 0 64 24 88 70 25 48 88 91
197 135 74 30 74 30 -30 -117 -85 -121 -150 -218 -155 -232 -3 -9 -31 -6 -327
34 -80 11 -146 20 -147 20 -2 0 -3 -94 -3 -209 l0 -209 28 -6 c23 -5 139 -19
319 -41 47 -5 64 9 97 83 23 51 36 45 36 -16 0 -28 4 -42 8 -34 10 15 27 -18
37 -70 6 -31 4 -35 -27 -49 -31 -15 -47 -15 -218 7 -242 31 -473 54 -532 54
-27 0 -48 3 -48 6 0 3 10 20 23 37 l22 32 0 626 0 625 -28 42 c-29 45 -25 48
33 32z m-3752 -195 c3 -3 -18 -53 -46 -112 -29 -58 -55 -104 -57 -102 -1 2
-22 49 -45 104 -23 55 -44 105 -46 110 -5 11 183 11 194 0z m2037 -15 c48 0
57 -3 64 -22 11 -29 3 -63 -19 -83 -21 -19 -15 -23 -102 72 -42 46 -48 59 -19
43 11 -5 45 -10 76 -10z m1268 -18 c9 -10 23 -38 32 -62 l16 -44 -32 -25 c-61
-48 -161 -111 -175 -111 -11 0 -14 19 -14 95 0 137 18 163 111 164 32 1 51 -4
62 -17z m1586 -81 c82 -56 214 -183 266 -256 56 -78 110 -191 131 -275 20 -79
25 -246 7 -243 -8 2 -10 -9 -7 -35 4 -33 3 -35 -6 -12 -6 13 -8 35 -5 48 4 15
2 21 -5 17 -5 -3 -10 0 -10 8 0 27 -52 172 -69 191 -9 11 -11 16 -4 12 7 -4
16 2 22 13 8 15 7 20 -5 25 -8 3 -13 10 -10 15 3 5 -2 15 -12 22 -15 13 -16
12 -3 -3 7 -10 10 -18 5 -18 -4 0 -3 -5 4 -12 16 -16 15 -25 -3 -25 -8 0 -12
4 -9 8 2 5 -2 24 -10 44 -11 25 -12 34 -3 30 7 -4 -2 6 -18 22 -17 15 -24 24
-16 18 26 -17 -25 48 -58 75 -17 14 -31 28 -31 32 0 23 -195 182 -211 172 -7
-4 -9 -3 -5 4 3 6 -6 20 -21 32 l-27 21 19 54 c10 30 22 55 27 55 5 0 35 -18
67 -39z m-5734 -246 c-2 -12 -24 -30 -52 -44 -26 -12 -99 -56 -160 -98 -184
-122 -309 -276 -351 -429 l-19 -68 -12 35 c-22 60 -25 198 -7 281 28 124 110
277 207 384 l49 54 12 -25 c6 -14 18 -25 27 -25 23 0 125 62 217 132 l79 59 7
-118 c5 -65 6 -127 3 -138z m5226 114 c20 -20 38 -29 50 -26 29 8 23 -9 -13
-37 -138 -106 -180 -130 -208 -121 -17 5 -20 16 -20 59 0 38 5 57 18 69 15 14
132 87 139 87 1 0 17 -14 34 -31z m589 -327 c43 -53 95 -155 131 -263 29 -83
33 -107 33 -204 1 -99 -2 -115 -24 -159 -43 -84 -145 -138 -295 -156 -77 -9
-105 1 -105 38 l0 28 70 -4 c60 -4 78 -1 123 22 28 14 71 43 95 65 34 31 42
45 42 74 0 70 -57 86 -155 42 -85 -37 -120 -45 -160 -34 -19 6 -35 16 -35 24
0 19 105 90 215 145 98 49 111 68 80 117 -16 24 -21 25 -79 20 -62 -5 -130
-30 -199 -74 -34 -21 -38 -22 -33 -6 3 10 12 46 20 79 9 34 29 94 45 133 68
167 152 208 231 113z m-3158 -162 c202 -321 203 -325 161 -333 -31 -5 -221 0
-240 7 -8 4 -12 66 -13 225 0 122 -3 229 -7 238 -11 33 12 0 99 -137z m1486
-52 l52 -9 -19 -27 c-34 -49 -58 -63 -118 -72 -32 -4 -61 -6 -65 -3 -5 2 -8
33 -8 68 l0 64 53 -5 c28 -3 76 -10 105 -16z m975 -134 c43 -13 -12 -88 -60
-82 -24 3 -28 8 -31 36 -6 64 5 70 91 46z"/>
<path d="M4863 6405 c-36 -15 -61 -57 -65 -107 l-3 -33 108 -1 107 -1 0 34 c0
84 -75 139 -147 108z"/>
<path d="M5366 6409 c-53 -13 -91 -43 -123 -97 -27 -46 -28 -52 -31 -219 l-4
-172 202 -3 c111 -2 207 0 212 3 7 5 8 64 2 186 -9 172 -11 182 -37 221 -44
67 -137 101 -221 81z m-49 -201 c-3 -8 -6 -5 -6 6 -1 11 2 17 5 13 3 -3 4 -12
1 -19z m208 2 c-3 -5 -25 -9 -48 -8 l-42 1 45 7 c25 4 46 8 48 8 2 1 0 -2 -3
-8z m-142 -7 c-7 -2 -19 -2 -25 0 -7 3 -2 5 12 5 14 0 19 -2 13 -5z m-33 -73
c0 -5 5 -10 11 -10 5 0 7 5 3 11 -4 7 -1 10 7 7 7 -2 13 -18 14 -34 0 -27 -3
-29 -42 -32 -36 -3 -43 0 -43 15 0 15 2 16 10 3 8 -13 10 -12 10 3 0 9 -4 17
-10 17 -5 0 -10 7 -10 15 0 9 9 15 25 15 14 0 25 -4 25 -10z"/>
<path d="M5318 6123 c7 -3 16 -2 19 1 4 3 -2 6 -13 5 -11 0 -14 -3 -6 -6z"/>
<path d="M5894 6409 c-66 -18 -84 -71 -84 -246 l0 -123 110 0 110 0 0 105 0
105 -102 2 -103 2 105 5 105 6 -4 35 c-3 37 -24 85 -41 95 -25 15 -67 21 -96
14z"/>
<path d="M4796 6234 c-8 -22 -7 -157 2 -171 10 -16 94 -26 157 -18 l55 6 0
100 0 99 -104 0 c-85 0 -105 -3 -110 -16z"/>
<path d="M6006 5954 c-13 -12 -16 -40 -16 -143 0 -135 7 -157 47 -149 16 3 18
17 21 133 1 72 0 140 -3 153 -6 26 -27 29 -49 6z"/>
<path d="M4930 5860 c0 -5 5 -10 10 -10 6 0 10 5 10 10 0 6 -4 10 -10 10 -5 0
-10 -4 -10 -10z"/>
<path d="M6326 6014 c-19 -19 -21 -48 -3 -62 6 -6 77 -26 157 -46 80 -19 179
-46 220 -61 50 -17 93 -25 131 -24 30 1 85 -4 122 -11 78 -16 100 -6 95 43 -2
25 -10 33 -43 44 -36 13 -624 133 -652 133 -6 0 -19 -7 -27 -16z"/>
<path d="M6366 5799 c-34 -27 -36 -81 -4 -103 26 -18 80 -21 109 -5 31 16 42
55 24 88 -23 45 -85 54 -129 20z"/>
<path d="M6849 5691 c-16 -16 -29 -35 -29 -41 0 -6 13 -25 29 -41 23 -22 39
-29 68 -29 75 0 111 77 57 119 -39 31 -89 28 -125 -8z"/>
<path d="M7539 5661 c-33 -26 -32 -86 2 -112 37 -28 93 -25 118 7 29 37 26 68
-10 98 -36 31 -78 33 -110 7z"/>
<path d="M7142 5600 c-12 -12 -22 -30 -22 -41 0 -28 44 -69 75 -69 29 0 85 49
85 74 0 51 -95 76 -138 36z"/>
<path d="M8540 4432 c0 -12 19 -26 26 -19 2 2 -2 10 -11 17 -9 8 -15 8 -15 2z"/>
<path d="M4619 7382 c-26 -23 -32 -36 -32 -68 0 -105 112 -150 178 -72 84 99
-49 227 -146 140z"/>
<path d="M6116 7337 c-24 -17 -18 -65 11 -84 19 -13 23 -12 42 8 l21 23 23
-22 c26 -24 69 -29 85 -9 21 27 24 58 6 78 -23 26 -78 25 -97 -1 -13 -19 -13
-19 -30 0 -20 23 -36 25 -61 7z"/>
<path d="M1885 5106 c-21 -21 -24 -29 -15 -46 16 -30 46 -41 98 -38 44 3 47 5
50 34 4 37 -22 63 -71 71 -29 4 -40 1 -62 -21z"/>
<path d="M8625 5110 c-11 -4 -31 -20 -45 -34 -19 -21 -22 -31 -14 -43 25 -40
124 -41 145 -2 15 29 4 64 -26 77 -30 14 -33 14 -60 2z"/>
<path d="M5000 3649 l-60 -64 0 58 0 57 -39 0 c-26 0 -41 -5 -45 -16 -3 -9 -6
-83 -6 -165 l0 -149 50 0 50 0 0 55 c0 70 12 70 70 0 45 -54 45 -54 103 -55
l59 0 -33 43 c-18 23 -52 64 -76 90 l-43 49 37 46 c20 26 48 59 62 75 l25 27
-25 0 c-13 0 -34 3 -47 6 -18 5 -33 -5 -82 -57z"/>
<path d="M5388 3703 l-58 -4 0 -164 0 -165 130 0 130 0 0 29 c0 57 -6 61 -86
61 -67 0 -74 2 -74 20 0 18 7 20 55 20 l55 0 0 40 0 40 -55 0 c-48 0 -55 2
-55 20 0 18 7 20 76 20 l75 0 -3 43 -3 42 -65 1 c-36 0 -91 -1 -122 -3z"/>
<path d="M3910 3540 l0 -160 25 -6 c14 -4 67 -4 117 -2 88 4 92 5 120 38 25
27 29 39 24 68 -3 20 -12 42 -20 50 -12 12 -12 19 1 49 12 29 12 41 2 66 -18
43 -61 57 -174 57 l-95 0 0 -160z m175 70 c12 -19 -16 -40 -51 -40 -30 0 -34
3 -34 25 0 22 4 25 39 25 22 0 43 -5 46 -10z m13 -132 c3 -15 -4 -18 -47 -18
-37 0 -51 4 -51 14 0 19 17 25 60 23 24 -1 36 -7 38 -19z"/>
<path d="M4472 3683 c-21 -39 -111 -260 -118 -285 -6 -28 -6 -28 45 -28 43 0
51 3 51 19 0 24 19 31 86 31 48 0 56 -3 66 -25 10 -22 18 -25 61 -25 47 0 49
1 43 24 -3 14 -35 87 -70 163 l-64 138 -46 3 c-35 2 -47 -1 -54 -15z m68 -152
c8 -29 7 -31 -16 -31 -28 0 -27 -2 -13 39 13 37 16 36 29 -8z"/>
<path d="M5770 3530 l0 -170 45 0 45 0 0 39 c0 85 21 92 69 21 34 -50 35 -50
88 -50 29 0 53 2 53 5 0 4 -18 33 -40 66 -32 48 -37 61 -24 66 21 8 44 56 44
94 0 22 -10 41 -34 65 l-34 34 -106 0 -106 0 0 -170z m174 68 c14 -22 1 -36
-42 -44 -31 -6 -32 -6 -32 30 0 36 1 37 31 34 18 -2 37 -11 43 -20z"/>
<path d="M6210 3694 c0 -4 26 -46 57 -93 54 -80 58 -91 63 -156 l5 -70 45 0
45 0 5 65 c5 59 11 73 67 155 33 50 59 93 56 98 -2 4 -24 7 -48 7 -40 0 -45
-3 -79 -50 -20 -27 -39 -50 -43 -50 -5 0 -23 23 -42 50 -32 48 -35 50 -82 50
-27 0 -49 -3 -49 -6z"/>
<path d="M3587 3602 c-36 -40 -9 -102 45 -102 53 0 79 74 36 104 -30 21 -61
20 -81 -2z"/>
<path d="M6770 3600 c-25 -25 -26 -62 -2 -83 43 -39 120 -2 107 51 -12 52 -68
69 -105 32z"/>
<path d="M7447 3331 c-4 -17 -3 -21 5 -13 5 5 8 16 6 23 -3 8 -7 3 -11 -10z"/>
<path d="M3683 3324 c-37 -18 -47 -38 -29 -53 39 -33 440 -88 851 -117 446
-31 1285 -28 1640 7 205 20 583 68 629 80 24 6 52 19 60 28 15 16 14 20 -10
42 -24 23 -32 24 -142 24 -64 0 -184 -6 -267 -13 -714 -59 -1413 -59 -2281 -1
-352 23 -409 23 -451 3z"/>
<path d="M4271 2891 c-19 -5 -36 -36 -93 -168 -38 -90 -67 -167 -63 -173 3 -5
24 -10 46 -10 35 0 41 3 50 30 11 30 11 30 90 30 76 0 80 -1 89 -25 9 -23 15
-25 65 -25 l55 0 -14 33 c-48 112 -130 293 -135 298 -10 11 -65 18 -90 10z
m63 -188 c7 -21 4 -23 -28 -23 -41 0 -44 9 -20 66 l17 39 12 -30 c7 -16 16
-40 19 -52z"/>
<path d="M4853 2822 l-73 -76 0 72 0 72 -50 0 -49 0 4 -166 c2 -91 6 -168 9
-171 2 -3 23 -7 45 -10 l41 -6 0 36 c0 41 18 87 34 87 6 0 32 -27 59 -60 l47
-60 60 2 c33 1 60 4 60 6 0 3 -32 47 -70 99 l-71 94 46 59 c25 32 50 62 55 65
21 13 8 23 -32 28 -42 4 -44 3 -115 -71z"/>
<path d="M3620 2721 l0 -168 85 -5 c126 -7 183 3 212 36 29 34 30 84 2 120
-20 25 -20 28 -5 45 9 10 16 34 16 53 0 28 -7 42 -31 62 -29 25 -36 26 -155
26 l-124 0 0 -169z m179 83 c21 -4 31 -12 31 -24 0 -19 -27 -30 -77 -30 -28 0
-33 4 -33 24 0 33 21 41 79 30z m29 -151 c-3 -26 -7 -28 -55 -31 l-53 -3 0 30
c0 31 0 31 56 31 54 0 55 0 52 -27z"/>
<path d="M5340 2721 l0 -170 45 -7 c25 -3 84 -3 130 1 l85 7 0 39 0 39 -86 0
c-74 0 -85 2 -80 16 3 9 6 20 6 25 0 5 32 9 70 9 l70 0 0 35 0 34 -72 3 c-70
3 -73 4 -73 28 0 24 2 25 81 28 l82 3 4 35 c2 19 2 37 -1 39 -2 3 -62 5 -133
5 l-128 0 0 -169z"/>
<path d="M5840 2738 c0 -185 3 -198 40 -198 51 0 60 9 60 56 0 38 3 44 21 44
31 0 55 -16 79 -55 20 -33 25 -35 76 -35 30 0 54 3 54 6 0 4 -16 28 -36 55
l-35 48 21 29 c29 40 36 101 16 140 -28 55 -48 62 -178 62 l-118 0 0 -152z
m191 62 c21 -12 25 -40 7 -58 -18 -18 -85 -15 -92 4 -10 26 -7 52 7 57 21 9
58 7 78 -3z"/>
<path d="M6394 2874 c4 -9 31 -56 61 -104 50 -81 54 -94 57 -157 l3 -68 48 -3
47 -3 0 68 c0 66 2 71 65 171 36 57 65 105 65 108 0 2 -24 4 -52 4 l-53 -1
-33 -54 c-18 -30 -36 -55 -40 -55 -4 0 -22 25 -40 55 l-33 55 -51 0 c-42 0
-49 -3 -44 -16z"/>
</g>
</svg>
